<svg width="20" height="18" viewBox="0 0 20 18" fill="none" xmlns="http://www.w3.org/2000/svg">
<path d="M7.71992 0C3.51025 0 0 2.81342 0 6.37708C0 8.20018 1.02675 9.7892 2.48504 10.9491C2.39013 11.5652 2.13238 12.1468 1.73698 12.6371C1.57555 12.8384 1.40663 13.0338 1.23056 13.2231C1.13948 13.3163 1.05851 13.4184 0.988922 13.5277C0.944918 13.5974 0.876211 13.6755 0.844559 13.833C0.812908 13.9906 0.856139 14.2479 0.988922 14.4422L1.08542 14.6065L1.27842 14.7003C1.95391 15.0282 2.68344 14.9704 3.35353 14.7941C4.02285 14.617 4.66669 14.3139 5.28351 13.9966C5.90034 13.6792 6.48551 13.3484 6.94793 13.106C7.01278 13.0723 7.05446 13.064 7.117 13.0355C8.33443 14.662 10.5639 15.7551 13.0513 15.7551C13.0752 15.7582 13.0976 15.7551 13.1239 15.7551C14.1275 15.7551 17.3698 18.9767 19.2998 17.7013C19.377 17.4019 17.603 16.6509 17.5142 14.419C19.025 13.3814 20 11.8381 20 10.1283C20 7.59848 17.9341 5.5083 15.175 4.75956C14.3019 1.99865 11.2665 0 7.71992 0ZM7.71992 1.50049C11.2302 1.50049 13.8959 3.78874 13.8959 6.37708C13.8959 8.96543 11.2302 11.2537 7.71992 11.2537C7.09306 11.2537 6.73332 11.5028 6.2238 11.7698C5.71429 12.0369 5.12989 12.367 4.55939 12.6604C4.06531 12.914 3.5944 13.109 3.16054 13.2463C3.58282 12.6536 4.02362 11.8741 4.10082 10.7848L4.12553 10.3624L3.76346 10.1051C2.38777 9.168 1.54398 7.81981 1.54398 6.37708C1.54398 3.78874 4.20967 1.50049 7.71992 1.50049Z" fill="#140000"/>
</svg>
